# xmcd
#
# Track frame offsets:
#	150
#	16399
#	33364
#	48188
#	65796
#	81285
#	95185
#	118040
#	136659
#	159785
#	180207
#	196383
#	211688
#	225752
#	240054
#	255129
#
# Disc length: 4428
#
# Revision: 1
# Processed by: cddbd v1.5.1PL0 Copyright (c) Steve Scherf et al.
# Submitted via: ExactAudioCopy v0.95a2
# Normalized: r0:TDELIM( - )
#
DISCID=b4114a10
DTITLE=Various Artist - Dance and Disco vol.1
DYEAR=1900
DGENRE=Dance
TTITLE0=Mungo Jerry - In the summer time
TTITLE1=Alexia - Uh la la la
TTITLE2=Sinclair and Wilde - Africa' hej Joe
TTITLE3=Sonic Dream - Don't go breaking my heart
TTITLE4=Electric Dream - Randez vous'98
TTITLE5=Bobby Summer - Mariela
TTITLE6=Red Hardin - La copa de vida
TTITLE7=la Fuertezza - Llegando
TTITLE8=Masquerade - Sailing
TTITLE9=Red Garden - High (dance version)
TTITLE10=Solid Base - Dancing with the Angel
TTITLE11=Los Locos - La banda (spanish version)
TTITLE12=The Sign - Words (dance version)
TTITLE13=Radiorama - Da di da
TTITLE14=Ondina - Summer of love
TTITLE15=Dj Arti - Megamix
EXTD=
EXTT0=
EXTT1=
EXTT2=
EXTT3=
EXTT4=
EXTT5=
EXTT6=
EXTT7=
EXTT8=
EXTT9=
EXTT10=
EXTT11=
EXTT12=
EXTT13=
EXTT14=
EXTT15=
PLAYORDER=
